Coordinates
version=1
nRows=12
nColumns=34
inDegrees=yes

Units are S.I. units (second, meters, Newtons, ...)
If the header above contains a line with 'inDegrees', this indicates whether rotational values are in degrees (yes) or radians (no).

endheader
time	pelvis_tilt	pelvis_list	pelvis_rotation	pelvis_tx	pelvis_ty	pelvis_tz	hip_flexion_r	hip_adduction_r	hip_rotation_r	knee_angle_r	ankle_angle_r	subtalar_angle_r	mtp_angle_r	hip_flexion_l	hip_adduction_l	hip_rotation_l	knee_angle_l	ankle_angle_l	subtalar_angle_l	mtp_angle_l	lumbar_extension	lumbar_bending	lumbar_rotation	arm_flex_r	arm_add_r	arm_rot_r	elbow_flex_r	pro_sup_r	arm_flex_l	arm_add_l	arm_rot_l	elbow_flex_l	pro_sup_l
      0.00000000	     -5.60178852	      0.89455282	     -3.57844322	     -0.04734654	      1.29362443	     -0.10175645	      7.78749365	     -1.71942130	      5.04446766	      7.91654723	      8.10642288	     -9.33350820	      0.00000000	      8.14683218	      0.06523956	      2.49914943	      8.26859894	      7.25490575	     -6.37527643	      0.00000000	     -1.64118301	     -1.16750601	     -3.13791428	      2.88284173	     -5.23270366	     13.30867638	     22.20875688	     78.60525866	      2.93850384	     -7.46655542	     14.55696087	     23.50985510	     71.42653315
      0.01666670	     -6.76957503	      0.28920635	     -4.00943883	     -0.04499298	      1.29018222	     -0.10097279	      8.52510037	     -0.83658690	      5.85166520	      7.72617820	     10.07801829	     -7.61712486	      0.00000000	      9.24789369	     -0.37997170	      2.97367806	      8.22629059	      6.91579650	     -6.40095015	      0.00000000	      1.04125214	     -0.12807794	     -2.92568302	      2.12868871	     -4.67016403	     10.21904981	     21.40956265	     78.19075940	      2.66037950	     -6.02008150	     11.40407011	     21.90297581	     70.96913692
      0.03333330	     -7.71688436	      0.52414936	     -4.37699331	     -0.04480762	      1.28947314	     -0.09950707	      9.28394717	     -0.84239692	      6.25237954	      7.05688724	     10.00806330	     -8.14848513	      0.00000000	     10.33866162	     -0.26738383	      2.60011049	      8.64005849	      7.22407618	     -6.47751593	      0.00000000	      2.16890300	     -0.50809324	     -2.73520557	      1.37689748	     -3.70601481	      5.10470083	     22.43565954	     78.04451846	      2.20453394	     -5.74735711	      7.83677500	     22.34114844	     71.03589084
      0.05000000	     -7.03221323	      0.66897448	     -4.43872682	     -0.04586114	      1.29087695	     -0.09915067	      8.47706636	     -0.99854845	      6.39597402	      6.59578463	     10.38930215	     -7.25603315	      0.00000000	      9.31465394	     -0.04955577	      2.91565581	      8.01198833	      6.77023623	     -7.23051368	      0.00000000	      1.28547943	     -0.93165110	     -2.61724697	      1.39586990	     -3.36554644	      4.05727559	     22.55430414	     78.69870460	      2.45581039	     -5.95591165	      7.68358454	     22.45064692	     71.66957488
      0.06666670	     -7.08879414	      0.68649098	     -4.67451755	     -0.04572839	      1.29236854	     -0.09934846	      8.53556727	     -0.99946301	      6.28523436	      6.48031942	     10.35475039	     -7.29461666	      0.00000000	      9.29545245	     -0.03186933	      2.94002644	      7.93567864	      6.80549550	     -7.22511804	      0.00000000	      1.26712407	     -0.93606613	     -2.61879838	      1.44522844	     -3.33918933	      4.05341850	     22.57900341	     78.71075319	      2.49065584	     -5.95900449	      7.68849084	     22.46039635	     71.68066416
      0.08333330	     -7.13475631	      0.74606784	     -4.98530642	     -0.04435133	      1.29004385	     -0.09808439	      8.49246483	     -0.99395385	      6.12117067	      6.46908539	      9.81575838	     -7.32048903	      0.00000000	      9.21445058	      0.01914504	      2.83724208	      7.69882389	      7.12900711	     -7.32982593	      0.00000000	      1.23077087	     -0.94099525	     -2.40026592	      1.67778123	     -3.31978888	      4.06857908	     22.66763661	     78.85304770	      2.48427565	     -5.91400768	      7.77793793	     22.50425132	     71.80998316
      0.10000000	     -7.15505602	      0.77664981	     -5.12631903	     -0.04242348	      1.28801774	     -0.09769090	      8.41792942	     -0.98589082	      6.05102076	      6.46500509	      9.81017977	     -7.37802137	      0.00000000	      9.18432749	      0.03086057	      2.87207811	      7.74848094	      7.16355320	     -7.32318540	      0.00000000	      1.29000762	     -0.95438071	     -2.36204167	      1.73546930	     -3.30368695	      4.07868175	     22.69002390	     78.87392759	      2.49171453	     -5.85335685	      7.79766481	     22.52130959	     71.82928701
      0.11666670	     -7.14170118	      0.86034995	     -5.22072417	     -0.04245987	      1.29102937	     -0.09706719	      8.25387827	     -1.06093363	      6.01643158	      6.30731100	      9.45096912	     -7.57703402	      0.00000000	      9.14494026	      0.11938812	      2.90772512	      7.80805734	      7.55977492	     -7.42852875	      0.00000000	      1.40794933	     -0.99611235	     -2.10408636	      1.68523774	     -3.36546524	      4.21293955	     22.64418736	     79.10094014	      2.46380393	     -5.65334542	      7.93216055	     22.54853649	     72.02518428
      0.13333330	     -7.15686248	      0.87996332	     -5.22987774	     -0.04146314	      1.28883113	     -0.09700912	      8.23068452	     -1.04458644	      6.01706009	      6.31372357	      9.44857186	     -7.57822290	      0.00000000	      9.14297265	      0.11629534	      2.91132096	      7.81232482	      7.55723997	     -7.42609873	      0.00000000	      1.41207525	     -0.99680912	     -2.10317994	      1.68970498	     -3.36647933	      4.21434104	     22.64541189	     79.10358834	      2.46863031	     -5.65232363	      7.93326889	     22.54967037	     72.02745594
      0.15000000	     -7.16166032	      0.90026698	     -5.39123760	     -0.04361435	      1.29005504	     -0.09590828	      8.22979454	     -1.02501972	      5.99629877	      6.24458352	      9.43257200	     -7.60766388	      0.00000000	      9.12106393	      0.10243559	      2.96807463	      7.88516806	      7.54734293	     -7.40255491	      0.00000000	      1.47224727	     -1.01191869	     -2.09490871	      1.71858725	     -3.38407073	      4.22541464	     22.65496253	     79.12495129	      2.49094049	     -5.64818250	      7.94064344	     22.55422506	     72.04535968
      0.16666670	     -7.48830130	      0.94260214	     -5.46319880	     -0.03972450	      1.29052367	     -0.09689778	      8.40672158	     -1.04437107	      6.37746006	      6.09203350	      8.46045571	     -8.52527193	      0.00000000	      9.46095002	      0.12652353	      3.04030035	      8.25713497	      7.63354148	     -7.32316757	      0.00000000	      2.37675225	     -0.95608515	     -2.03464658	      1.74740506	     -3.98532877	      6.74441489	     21.81387186	     88.87933956	      2.48591896	     -5.82518643	      9.40309463	     21.47944629	     80.51327490
      0.18333330	     -7.48421396	      0.96744371	     -5.46295186	     -0.04179659	      1.28877147	     -0.09573976	      8.44574877	     -1.01889146	      6.37881900	      6.06096639	      8.46321056	     -8.52534204	      0.00000000	      9.41802406	      0.13501539	      3.04326705	      8.27713130	      7.63518240	     -7.32414866	      0.00000000	      2.37637712	     -0.95577226	     -2.03868368	      1.73648015	     -3.99074319	      6.74107728	     21.81092393	     88.88001088	      2.48202398	     -5.82387003	      9.40085769	     21.47902387	     80.51407984
